<svg width="10" height="6" viewBox="0 0 10 6" fill="none" xmlns="http://www.w3.org/2000/svg">
<path d="M4.71409 4.88911L4.71414 4.88916C4.78662 4.95614 4.89278 4.99993 5.01096 5L4.71409 4.88911ZM4.71409 4.88911L1.11409 1.56259L1.11414 1.56253M4.71409 4.88911L1.11414 1.56253M1.11414 1.56253L1.10769 1.55677M1.11414 1.56253L1.10769 1.55677M1.10769 1.55677C1.07097 1.524 1.04408 1.48698 1.02647 1.44909C1.00892 1.41134 1.00037 1.37239 1.00001 1.33415C0.999652 1.29593 1.00746 1.25697 1.02421 1.21915C1.04101 1.1812 1.06704 1.14397 1.10293 1.11081C1.13891 1.07757 1.18383 1.04935 1.23601 1.02962C1.28823 1.00988 1.34539 0.999546 1.40381 1.00002C1.46223 1.00048 1.51908 1.01173 1.57076 1.03225C1.62239 1.05274 1.66657 1.08155 1.70171 1.11517L1.70166 1.11523M1.10769 1.55677L1.70166 1.11523M1.70166 1.11523L1.70803 1.12111M1.70166 1.11523L1.70803 1.12111M1.70803 1.12111L4.67173 3.85967L5.01106 4.17322M1.70803 1.12111L5.01106 4.17322M5.01106 4.17322L5.35039 3.85967M5.01106 4.17322L5.35039 3.85967M5.35039 3.85967L8.31025 1.12466C8.3835 1.06049 8.48827 1.01953 8.6038 1.02045C8.72068 1.02139 8.82538 1.065 8.89707 1.13124C8.96749 1.19631 8.99929 1.27568 8.99999 1.34954C9.00067 1.42246 8.97116 1.50086 8.90419 1.56614L5.30803 4.88911L5.30797 4.88916M5.35039 3.85967L5.30797 4.88916M5.30797 4.88916C5.2355 4.95614 5.12934 4.99993 5.01116 5L5.30797 4.88916Z" fill="#8F8B8B" stroke="#8F8B8B"/>
</svg>
